Prom 5. Strauss, Saariaho & Sibelius

Making his Proms debut as the BBC Philharmonic's Chief Conductor, Juanjo Mena explores Strauss the impatient visionary, whose Also sprach Zarathustra was famously used on the soundtrack of Stanley Kubrick's 2001: A Space Odyssey. Strauss's Four Last Songs exude a sense of calm resignation suffused with autumn light. 

After the interval, a major UK premiere from Kaija Saariaho, whose own music is lit by atmosphere and mood. Inspired by the autobiography of Ingmar Bergman, the Swedish film director, Laterna magica includes sections in which players whisper extracts over an instrumental murmur. To conclude, the hard-won luminescence of Sibelius's (unintended) symphonic farewell.

R. Strauss - Also sprach Zarathustra (32 mins)
R. Strauss - Four Last Songs (22 mins)
Kaija Saariaho - Laterna magica (22 mins)
Sibelius - Symphony No. 7 in C major (23 mins)

Format                                   : MPEG-4
Format profile                           : Base Media
Codec ID                                 : isom
File size                                : 1.25 GiB
Duration                                 : 1h 58mn
Overall bit rate mode                    : Constant
Overall bit rate                         : 1 503 Kbps

Video
ID                                       : 1
Format                                   : AVC
Format/Info                              : Advanced Video Codec
Format profile                           : Main@L3.0
Format settings, CABAC                   : Yes
Format settings, ReFrames                : 4 frames
Codec ID                                 : avc1
Codec ID/Info                            : Advanced Video Coding
Duration                                 : 1h 58mn
Bit rate mode                            : Constant
Bit rate                                 : 1 404 Kbps
Width                                    : 832 pixels
Height                                   : 468 pixels
Display aspect ratio                     : 16:9
Frame rate mode                          : Constant
Frame rate                               : 25.000 fps
Standard                                 : PAL
Color space                              : YUV
Chroma subsampling                       : 4:2:0
Bit depth                                : 8 bits
Scan type                                : Progressive
Bits/(Pixel*Frame)                       : 0.144
Stream size                              : 1.16 GiB (93%)

Audio
ID                                       : 2
Format                                   : AAC
Format/Info                              : Advanced Audio Codec
Format profile                           : HE-AAC / LC
Codec ID                                 : 40
Duration                                 : 1h 58mn
Bit rate mode                            : Constant
Bit rate                                 : 96.0 Kbps
Channel(s)                               : 2 channels
Channel positions                        : Front: L R
Sampling rate                            : 48.0 KHz / 24.0 KHz
Compression mode                         : Lossy
Stream size                              : 80.5 MiB (6%)
